<?xml version="1.0" standalone="no"?>
<!DOCTYPE svg PUBLIC "-//W3C//DTD SVG 20010904//EN"
 "http://www.w3.org/TR/2001/REC-SVG-20010904/DTD/svg10.dtd">
<svg version="1.0" xmlns="http://www.w3.org/2000/svg"
 width="427.000000pt" height="427.000000pt" viewBox="0 0 427.000000 427.000000"
 preserveAspectRatio="xMidYMid meet">
<metadata>
Created by potrace 1.11, written by Peter Selinger 2001-2013
</metadata>
<g transform="translate(0.000000,427.000000) scale(0.100000,-0.100000)"
fill="#000000" stroke="none">
<path d="M3283 3720 c-53 -11 -173 -58 -194 -76 -8 -8 -20 -14 -25 -14 -16 0
-162 -114 -231 -180 -79 -77 -231 -264 -226 -280 1 -4 -7 -16 -17 -25 -11 -10
-20 -23 -20 -30 0 -7 -9 -20 -20 -30 -11 -10 -17 -21 -15 -26 3 -4 1 -10 -4
-14 -11 -6 -123 -225 -116 -225 2 0 -9 -29 -24 -64 -24 -53 -70 -185 -111
-321 -11 -38 -41 -163 -45 -190 -2 -11 -4 -20 -5 -20 -1 0 -3 -9 -5 -20 -2
-11 -7 -36 -11 -55 -8 -43 -11 -61 -19 -123 -3 -27 -10 -58 -15 -70 -9 -22 -9
-22 -11 3 -1 14 -2 31 -2 38 1 6 -4 12 -10 12 -6 0 -8 3 -4 6 3 3 -2 29 -10
57 -9 29 -17 61 -19 72 -5 29 -40 155 -53 188 -6 15 -8 27 -5 27 4 0 2 6 -3
13 -9 10 -19 42 -24 72 0 6 -9 26 -19 45 -10 19 -18 38 -19 43 -1 7 -2 10 -5
25 -2 4 -7 18 -13 32 -6 14 -23 54 -38 90 -16 36 -42 94 -59 130 -17 36 -29
68 -28 73 1 4 -2 7 -7 7 -5 0 -11 8 -15 18 -9 27 -64 121 -115 195 -25 38 -51
77 -57 87 -21 38 -91 117 -189 216 -216 218 -435 306 -683 275 -133 -17 -213
-58 -306 -158 -61 -67 -128 -184 -140 -246 -2 -12 -9 -35 -16 -52 -19 -49 -22
-90 -24 -290 -1 -200 4 -282 23 -353 7 -23 9 -47 6 -52 -3 -6 -2 -10 3 -10 5
0 9 -11 9 -25 0 -41 30 -65 79 -65 64 0 77 19 71 99 -3 36 -7 75 -10 86 -4 18
-10 49 -24 135 -38 225 5 447 115 599 92 126 252 185 400 147 179 -46 370
-189 526 -396 69 -91 171 -247 171 -262 0 -3 3 -10 7 -14 26 -25 198 -422 201
-461 0 -7 5 -13 10 -13 6 0 8 -3 4 -6 -3 -3 1 -25 10 -47 8 -23 16 -49 18 -57
2 -8 8 -27 14 -43 6 -15 13 -38 15 -50 2 -12 16 -65 30 -117 14 -52 27 -106
30 -120 2 -14 9 -44 15 -68 7 -24 14 -60 17 -80 2 -20 9 -55 15 -77 6 -22 12
-56 14 -75 3 -32 7 -61 20 -130 6 -33 16 -108 20 -145 1 -16 6 -50 10 -75 9
-59 13 -128 19 -285 3 -71 8 -146 11 -165 7 -51 17 -212 17 -310 1 -71 5 -91
25 -123 22 -34 27 -37 72 -37 65 0 77 16 74 100 -3 73 -10 138 -22 220 -5 30
-8 88 -7 128 0 41 -1 75 -3 78 -15 15 -21 575 -8 739 4 55 8 110 7 123 0 13 4
42 10 65 5 23 12 71 15 107 4 36 11 81 16 100 4 19 11 53 14 75 4 22 10 56 15
75 5 19 11 46 14 60 8 43 14 62 35 140 12 41 23 82 26 90 2 8 4 15 5 15 1 0 3
7 5 15 20 76 76 212 142 345 63 128 59 121 140 245 163 251 385 429 602 485
74 19 114 15 186 -20 35 -17 60 -39 84 -75 19 -27 31 -53 28 -57 -4 -3 -2 -12
4 -19 11 -13 14 -101 5 -160 -7 -52 -59 -207 -84 -251 -7 -13 -10 -23 -7 -23
4 0 -2 -12 -12 -27 -10 -16 -29 -48 -41 -73 -26 -51 -34 -65 -79 -132 -18 -26
-33 -50 -33 -53 0 -3 -13 -23 -29 -46 -25 -33 -29 -48 -27 -89 4 -66 18 -80
75 -80 44 0 49 3 84 50 20 27 37 52 37 55 0 3 15 27 33 53 60 90 159 277 150
286 -4 3 -2 6 4 6 5 0 10 6 10 13 1 6 12 41 25 77 13 36 25 68 26 73 1 4 2 8
3 10 0 1 2 11 4 22 1 11 7 47 13 80 13 76 9 235 -8 300 -17 66 -70 153 -115
188 -72 57 -120 71 -245 74 -63 1 -134 -2 -157 -7z"/>
</g>
</svg>
